<svg xmlns="http://www.w3.org/2000/svg" width="1200" height="630" viewBox="0 0 1200 630" role="img" aria-labelledby="title desc">
  <title id="title">Rearranged food diary cards</title>
  <desc id="desc">Abstract diary cards fan into several colorful routes on a dark background.</desc>
  <rect width="1200" height="630" fill="#07122c"/>
  <rect x="112" y="98" width="350" height="434" rx="28" fill="#f3f0e8" transform="rotate(-7 287 315)"/>
  <g fill="#07122c"><rect x="163" y="168" width="175" height="18" rx="9"/><rect x="163" y="216" width="238" height="9" rx="4.5" opacity=".35"/><rect x="163" y="244" width="205" height="9" rx="4.5" opacity=".35"/><rect x="163" y="305" width="248" height="58" rx="14" opacity=".09"/><rect x="163" y="385" width="248" height="58" rx="14" opacity=".09"/></g>
  <circle cx="372" cy="177" r="22" fill="#ff6d55"/>
  <path d="M445 220C604 138 672 126 839 126H1095" fill="none" stroke="#46ec96" stroke-width="34" stroke-linecap="round"/>
  <path d="M462 315H1095" fill="none" stroke="#f3f0e8" stroke-width="34" stroke-linecap="round"/>
  <path d="M445 410C604 492 672 504 839 504H1095" fill="none" stroke="#ff6d55" stroke-width="34" stroke-linecap="round"/>
  <g fill="#07122c" stroke-width="9"><circle cx="850" cy="126" r="45" fill="#f3f0e8" stroke="#46ec96"/><rect x="809" y="274" width="82" height="82" rx="18" fill="#f3f0e8" stroke="#07122c"/><path d="M850 459l47 81h-94z" fill="#f3f0e8" stroke="#ff6d55"/></g>
</svg>
